<?xml version="1.0" encoding="UTF-8"?><svg id="b" xmlns="http://www.w3.org/2000/svg" xmlns:xlink="http://www.w3.org/1999/xlink" viewBox="0 0 65.15137 43.6958"><defs><linearGradient id="e" x1="-110.48306" y1="1584.41325" x2="-101.17228" y2="1596.02237" gradientTransform="translate(126.7547 1619.54635) scale(1 -1)" gradientUnits="userSpaceOnUse"><stop offset="0" stop-color="#fff"/><stop offset="1" stop-color="#e8e7dd"/></linearGradient><linearGradient id="f" x1="-77.0523" y1="1585.12905" x2="-86.36351" y2="1596.67947" xlink:href="#e"/></defs><g id="c"><path d="M53.43945,9.75977c-1.85645-5.77295-7.30957-9.75977-13.44727-9.75977-4.28809,0-8.36621,1.98535-11.05371,5.3457-1.33105-.40625-2.71191-.61182-4.11621-.61182-6.00977,0-11.4248,3.89551-13.37207,9.54443C4.78027,15.86719,0,21.87451,0,28.78418c0,7.84473,6.13477,14.37598,13.96484,14.86963,.10254,.00635,.2041,.00977,.31152,.01025l33.4209,.03174c9.62402,0,17.4541-7.82959,17.4541-17.45361,0-7.49463-4.68359-14.05176-11.71191-16.48242Zm-5.7417,28.93585c-.00977,0-.01904-.00146-.02881-.00146v.00146l-33.38794-.0318c-5.17871-.32654-9.28125-4.61841-9.28125-9.87964,0-5.47394,4.4375-9.91144,9.91138-9.91144,.26147,0,.51807,.01917,.77417,.03906,0-.01318-.00195-.02588-.00195-.03906,0-5.04736,4.0918-9.1391,9.13916-9.1391,2.41528,0,4.60498,.94373,6.23901,2.47388,.88696-4.1189,4.54639-7.20746,8.93042-7.20746,4.95825,0,8.98486,3.95099,9.12573,8.87518,6.20825,.70569,11.03345,5.96979,11.03345,12.36682,0,6.87793-5.57544,12.45355-12.45337,12.45355Z" style="fill:#fff;"/><g id="d"><g><path d="M27.23028,17.76461h-4.64568c0,1.04739,0,7.51755,0,8.02435,0,3.80101,0,4.22334-4.22334,4.22334h-2.53401v4.64568h2.77178c3.1409,0,5.67491,0,7.36424-2.11167,1.31937-1.6471,1.267-2.11167,1.267-6.75735,.00422,.02703,0-8.02435,0-8.02435Z" style="fill:url(#e);"/><path d="M38.21097,17.76461v10.55836h3.37867c1.267,0,1.267-.84467,1.267-1.68934v-8.86902h-4.64568Z" style="fill:url(#f);"/><path d="M37.78863,17.76461l-5.06801,6.75735-5.06801-6.75735h-5.06801c.0038,.00676,0,1.267,0,1.267l10.13602,13.09236,10.13602-13.09236s0-1.26489,0-1.267h-5.06801Z" style="fill:#fff;"/><path d="M49.61399,17.76461h-4.64568c0,1.04739,0,7.51755,0,8.02435,0,3.80101,0,4.22334-4.22334,4.22334h-2.53401v4.64568h2.77051c3.14217,0,5.67617,0,7.36551-2.11167,1.31895-1.6471,1.267-2.11167,1.267-6.75735,.00253,.02703,0-8.02435,0-8.02435Z" style="fill:#fff;"/></g></g></g></svg>