<!-- Generated by IcoMoon.io -->
<svg version="1.1" xmlns="http://www.w3.org/2000/svg" width="48" height="48" viewBox="0 0 48 48">
<title>content_paste</title>
<path d="M37.969 40.031v-32.063h-3.938v6h-20.063v-6h-3.938v32.063h27.938zM24 4.031c-1.125 0-1.969 0.844-1.969 1.969s0.844 1.969 1.969 1.969 1.969-0.844 1.969-1.969-0.844-1.969-1.969-1.969zM37.969 4.031c2.156 0 4.031 1.781 4.031 3.938v32.063c0 2.156-1.875 3.938-4.031 3.938h-27.938c-2.156 0-4.031-1.781-4.031-3.938v-32.063c0-2.156 1.875-3.938 4.031-3.938h8.344c0.844-2.344 3-4.031 5.625-4.031s4.781 1.688 5.625 4.031h8.344z"></path>
</svg>
